HIERARCHY
ROOT hip
{
  OFFSET 0 0 0
  CHANNELS 6 Xposition Yposition Zposition Zrotation Yrotation Xrotation
  JOINT abdomen
  {
    OFFSET 0 20.6881 -0.73152
    CHANNELS 3 Zrotation Xrotation Yrotation
    JOINT chest
    {
      OFFSET 0 11.7043 -0.48768
      CHANNELS 3 Zrotation Xrotation Yrotation
      JOINT neck
      {
        OFFSET 0 22.1894 -2.19456
        CHANNELS 3 Zrotation Xrotation Yrotation
        JOINT head
        {
          OFFSET -0.24384 7.07133 1.2192
          CHANNELS 3 Zrotation Xrotation Yrotation
          JOINT leftEye
          {
            OFFSET 4.14528 8.04674 8.04672
            CHANNELS 3 Zrotation Xrotation Yrotation
            End Site
            {
              OFFSET 1 0 0
            }
          }
          JOINT rightEye
          {
            OFFSET -3.6576 8.04674 8.04672
            CHANNELS 3 Zrotation Xrotation Yrotation
            End Site
            {
              OFFSET 1 0 0
            }
          }
        }
      }
      JOINT rCollar
      {
        OFFSET -2.68224 19.2634 -4.8768
        CHANNELS 3 Zrotation Xrotation Yrotation
        JOINT rShldr
        {
          OFFSET -8.77824 -1.95073 1.46304
          CHANNELS 3 Zrotation Xrotation Yrotation
          JOINT rForeArm
          {
            OFFSET -28.1742 -1.7115 0.48768
            CHANNELS 3 Zrotation Xrotation Yrotation
            JOINT rHand
            {
              OFFSET -22.5879 0.773209 7.07136
              CHANNELS 3 Zrotation Xrotation Yrotation
              JOINT rThumb1
              {
                OFFSET -1.2192 -0.487915 3.41376
                CHANNELS 3 Zrotation Xrotation Yrotation
                JOINT rThumb2
                {
                  OFFSET -3.37035 -0.52449 3.41376
                  CHANNELS 3 Zrotation Xrotation Yrotation
                  End Site
                  {
                    OFFSET -1.78271 -1.18214 1.43049
                  }
                }
              }
              JOINT rIndex1
              {
                OFFSET -7.75947 0.938293 5.60832
                CHANNELS 3 Zrotation Xrotation Yrotation
                JOINT rIndex2
                {
                  OFFSET -2.54057 -0.884171 1.56538
                  CHANNELS 3 Zrotation Xrotation Yrotation
                  End Site
                  {
                    OFFSET -1.62519 -0.234802 1.16502
                  }
                }
              }
              JOINT rMid1
              {
                OFFSET -8.24714 1.18213 3.41376
                CHANNELS 3 Zrotation Xrotation Yrotation
                JOINT rMid2
                {
                  OFFSET -3.10165 -0.590103 1.0647
                  CHANNELS 3 Zrotation Xrotation Yrotation
                  End Site
                  {
                    OFFSET -2.48547 -0.328903 0.83742
                  }
                }
              }
              JOINT rRing1
              {
                OFFSET -8.82822 0.546677 1.51678
                CHANNELS 3 Zrotation Xrotation Yrotation
                JOINT rRing2
                {
                  OFFSET -2.60934 -0.819778 -0.0198488
                  CHANNELS 3 Zrotation Xrotation Yrotation
                  End Site
                  {
                    OFFSET -2.33842 -0.294052 0.168128
                  }
                }
              }
              JOINT rPinky1
              {
                OFFSET -8.27202 -0.0477905 -0.4584
                CHANNELS 3 Zrotation Xrotation Yrotation
                JOINT rPinky2
                {
                  OFFSET -1.82734 -0.647385 -0.700984
                  CHANNELS 3 Zrotation Xrotation Yrotation
                  End Site
                  {
                    OFFSET -1.69225 -0.51767 -0.607171
                  }
                }
              }
            }
          }
        }
      }
      JOINT lCollar
      {
        OFFSET 2.68224 19.2634 -4.8768
        CHANNELS 3 Zrotation Xrotation Yrotation
        JOINT lShldr
        {
          OFFSET 8.77824 -1.95073 1.46304
          CHANNELS 3 Zrotation Xrotation Yrotation
          JOINT lForeArm
          {
            OFFSET 28.1742 -1.7115 0.48768
            CHANNELS 3 Zrotation Xrotation Yrotation
            JOINT lHand
            {
              OFFSET 22.5879 0.773209 7.07136
              CHANNELS 3 Zrotation Xrotation Yrotation
              JOINT lThumb1
              {
                OFFSET 1.2192 -0.487915 3.41376
                CHANNELS 3 Zrotation Xrotation Yrotation
                JOINT lThumb2
                {
                  OFFSET 3.37035 -0.52449 3.41376
                  CHANNELS 3 Zrotation Xrotation Yrotation
                  End Site
                  {
                    OFFSET 1.78271 -1.18214 1.43049
                  }
                }
              }
              JOINT lIndex1
              {
                OFFSET 7.75947 0.938293 5.60832
                CHANNELS 3 Zrotation Xrotation Yrotation
                JOINT lIndex2
                {
                  OFFSET 2.54057 -0.884171 1.56538
                  CHANNELS 3 Zrotation Xrotation Yrotation
                  End Site
                  {
                    OFFSET 1.62519 -0.234802 1.16502
                  }
                }
              }
              JOINT lMid1
              {
                OFFSET 8.24714 1.18213 3.41376
                CHANNELS 3 Zrotation Xrotation Yrotation
                JOINT lMid2
                {
                  OFFSET 3.10165 -0.590103 1.0647
                  CHANNELS 3 Zrotation Xrotation Yrotation
                  End Site
                  {
                    OFFSET 2.48547 -0.328903 0.83742
                  }
                }
              }
              JOINT lRing1
              {
                OFFSET 8.82822 0.546677 1.51678
                CHANNELS 3 Zrotation Xrotation Yrotation
                JOINT lRing2
                {
                  OFFSET 2.60934 -0.819778 -0.0198488
                  CHANNELS 3 Zrotation Xrotation Yrotation
                  End Site
                  {
                    OFFSET 2.33842 -0.294052 0.168128
                  }
                }
              }
              JOINT lPinky1
              {
                OFFSET 8.27202 -0.0477905 -0.4584
                CHANNELS 3 Zrotation Xrotation Yrotation
                JOINT lPinky2
                {
                  OFFSET 1.82734 -0.647385 -0.700984
                  CHANNELS 3 Zrotation Xrotation Yrotation
                  End Site
                  {
                    OFFSET 1.69225 -0.51767 -0.607171
                  }
                }
              }
            }
          }
        }
      }
    }
  }
  JOINT rButtock
  {
    OFFSET -8.77824 4.35084 1.2192
    CHANNELS 3 Zrotation Xrotation Yrotation
    JOINT rThigh
    {
      OFFSET 0 -1.70687 -2.19456
      CHANNELS 3 Zrotation Xrotation Yrotation
      JOINT rShin
      {
        OFFSET 0 -36.8199 0.73152
        CHANNELS 3 Zrotation Xrotation Yrotation
        JOINT rFoot
        {
          OFFSET 0.73152 -45.1104 -5.12064
          CHANNELS 3 Zrotation Xrotation Yrotation
          End Site
          {
            OFFSET -1.1221 -3.69964 12.103
          }
        }
      }
    }
  }
  JOINT lButtock
  {
    OFFSET 8.77824 4.35084 1.2192
    CHANNELS 3 Zrotation Xrotation Yrotation
    JOINT lThigh
    {
      OFFSET 0 -1.70687 -2.19456
      CHANNELS 3 Zrotation Xrotation Yrotation
      JOINT lShin
      {
        OFFSET 0 -36.8199 0.73152
        CHANNELS 3 Zrotation Xrotation Yrotation
        JOINT lFoot
        {
          OFFSET -0.73152 -45.1104 -5.12064
          CHANNELS 3 Zrotation Xrotation Yrotation
          End Site
          {
            OFFSET 1.1221 -3.69964 12.103
          }
        }
      }
    }
  }
}
MOTION
Frames:	4
Frame Time:	0.03333
6.302869989058195 47.92209961314311 49.14900023052239 -18.865699768066406 -30.373701095581055 15.536199569702148 12.466499328613281 7.910569667816162 5.36979866027832 2.2897799015045166 -7.162630558013916 1.6429399251937866 0.02451379969716072 12.154200553894043 8.110170364379883 3.9808104038238525 -20.795400619506836 16.691898345947266 -0.0 0.0 -0.0 -0.0 0.0 -0.0 4.3944500273916665e-13 6.996209709654588e-13 -1.197959917029201e-13 106.37199401855469 45.667598724365234 -53.9254035949707 -26.985801696777344 -44.053497314453125 91.55039978027344 -4.625930309295654 -50.45379638671875 -9.800021171569824 5.988639445453359e-11 -3.6896299904221053e-10 -1.4848998419747517e-10 1.0899799118835318e-10 -6.484989767407967e-10 -2.5686799909330205e-10 5.989239659776047e-11 -3.68965996644377e-10 -1.4850400076316106e-10 7.730909824371338 5.474879741668701 0.4173140823841095 5.988599893758106e-11 -3.6897299104943215e-10 -1.4849599327959595e-10 2.9055399894714355 0.9651829600334167 0.10290199518203735 5.989640033954302e-11 -3.68965996644377e-10 -1.4849099727598514e-10 10.27859878540039 0.73180091381073 0.025912316516041756 5.988440299198317e-11 -3.68965996644377e-10 -1.4848298979242003e-10 2.221669912338257 -0.733487069606781 -0.208919957280159 4.3924697321236217e-13 6.996229767394779e-13 -1.1999399412467027e-13 -45.42469024658203 11.188797950744629 -38.00810241699219 12.889300346374512 -6.092230319976807 -23.34499740600586 2.5889997482299805 40.76860427856445 -6.960050106048584 1.2893399681246365e-09 -5.158499849500231e-09 -5.025239668832171e-10 2.2054700288265394e-09 -9.0231591087786e-09 -9.09498976131573e-10 1.2893399681246365e-09 -5.1584896354484044e-09 -5.025119764745511e-10 -7.730909824371338 5.474879741668701 -0.4173140823841095 1.2893399681246365e-09 -5.158520277603884e-09 -5.025249660839393e-10 -2.9055399894714355 0.9651829600334167 -0.10290199518203735 1.2893399681246365e-09 -5.158509619462848e-09 -5.025239668832171e-10 -10.27859878540039 0.73180091381073 -0.025912316516041756 1.2893498491095556e-09 -5.158499849500231e-09 -5.025320160001456e-10 -2.221669912338257 -0.733487069606781 0.208919957280159 -2.0321699480147914e-16 0.0 -3.8825099822884138e-19 -13.093899726867676 11.047699928283691 -1.2060399055480957 0.10195700079202652 30.022401809692383 2.45497989654541 -7.768711090087891 -18.196102142333984 -29.656597137451172 2.0321699480147914e-16 0.0 3.8825099822884138e-19 89.6668930053711 -49.59010696411133 78.44290161132812 9.247300148010254 83.64889526367188 -9.07810115814209 -0.24316799640655518 -5.141480445861816 -2.2024195194244385
6.310629989422301 47.853999212023496 49.198000231076634 -18.889598846435547 -30.302003860473633 15.567598342895508 12.473298072814941 7.854050636291504 5.301379680633545 2.3200697898864746 -7.16070032119751 1.6235696077346802 -0.013642700389027596 12.127700805664062 8.103219985961914 4.1492695808410645 -20.75699806213379 16.707298278808594 -0.0 0.0 -0.0 -0.0 0.0 -0.0 1.7022700523477985e-13 3.4031900019403094e-13 3.9443798162570876e-13 106.41799926757812 45.758697509765625 -53.91420364379883 -26.993593215942383 -44.03280258178711 91.50919342041016 -4.620809555053711 -50.43490219116211 -9.793378829956055 -1.6504799749128551e-09 2.6044699730221055e-09 -2.787499953083028e-10 -2.8320898959321994e-09 4.340639847555394e-09 -5.488919319063257e-10 -1.6504699829056335e-09 2.6044699730221055e-09 -2.787599595599488e-10 7.730909824371338 5.474879741668701 0.4173140823841095 -1.6504799749128551e-09 2.6044699730221055e-09 -2.787499953083028e-10 2.9055399894714355 0.9651829600334167 0.10290199518203735 -1.6504699829056335e-09 2.6044699730221055e-09 -2.787479969068585e-10 10.27859878540039 0.73180091381073 0.025912316516041756 -1.6504799749128551e-09 2.6044699730221055e-09 -2.787440001039698e-10 2.221669912338257 -0.733487069606781 -0.208919957280159 1.7015299488398056e-13 3.4031900019403094e-13 3.9428898514215494e-13 -45.51039505004883 11.098498344421387 -38.009098052978516 12.865399360656738 -6.074400424957275 -23.297998428344727 2.5917699337005615 40.785797119140625 -6.96429967880249 3.001179860184777e-11 -1.1871500227300658e-08 -2.9214897168117204e-09 -4.080059901045985e-11 -2.0248300813818787e-08 -5.037669836838177e-09 3.0007701184997515e-11 -1.1871500227300658e-08 -2.9214897168117204e-09 -7.730909824371338 5.474879741668701 -0.4173140823841095 3.0014598445538e-11 -1.1871500227300658e-08 -2.921499930863547e-09 -2.9055399894714355 0.9651829600334167 -0.10290199518203735 3.000409989906139e-11 -1.1871500227300658e-08 -2.9214897168117204e-09 -10.27859878540039 0.73180091381073 -0.025912316516041756 3.001269718860833e-11 -1.1871500227300658e-08 -2.921499930863547e-09 -2.221669912338257 -0.733487069606781 0.208919957280159 -2.0321699480147914e-16 0.0 -3.8825099822884138e-19 -13.075498580932617 11.104001998901367 -1.1772596836090088 0.10271099954843521 29.99250030517578 2.4608798027038574 -7.790089130401611 -18.193599700927734 -29.725605010986328 2.0321699480147914e-16 0.0 3.8825099822884138e-19 89.8897933959961 -49.58930587768555 78.67070007324219 9.500781059265137 83.79432678222656 -9.322210311889648 -0.2646079957485199 -5.220289707183838 -2.311579704284668
6.318959989583224 47.78589881090389 49.24700023163088 -19.00379753112793 -30.22089385986328 15.669001579284668 12.63860034942627 7.738029956817627 5.258889675140381 2.2753801345825195 -7.128739833831787 1.608280062675476 0.012412900105118752 12.305200576782227 8.038081169128418 4.133650302886963 -21.01099967956543 16.584400177001953 -0.0 0.0 -0.0 -0.0 0.0 -0.0 -2.3355099863613116e-13 -5.058989997210571e-14 -1.679730031282911e-14 106.46599578857422 45.76860046386719 -53.91890335083008 -26.99089813232422 -44.039798736572266 91.52330017089844 -4.599640369415283 -50.35660171508789 -9.765900611877441 9.66249968925581e-10 -1.0035799968832748e-09 4.6013798327138034e-10 1.6454598794624076e-09 -1.6196999297335424e-09 8.326379585810173e-10 9.662529665277475e-10 -1.0035698938537507e-09 4.601280190197343e-10 7.730909824371338 5.474879741668701 0.4173140823841095 9.66247082345717e-10 -1.0035799968832748e-09 4.6013798327138034e-10 2.9055399894714355 0.9651829600334167 0.10290199518203735 9.662549649291918e-10 -1.0035799968832748e-09 4.6014195231869337e-10 10.27859878540039 0.73180091381073 0.025912316516041756 9.6624586110039e-10 -1.0035799968832748e-09 4.601489744793241e-10 2.221669912338257 -0.733487069606781 -0.208919957280159 -2.3371400843276435e-13 -5.0592397025234215e-14 -1.7021000020133077e-14 -45.4827995300293 11.091200828552246 -38.06559753417969 12.83389949798584 -6.050960540771484 -23.236099243164062 2.5899600982666016 40.774497985839844 -6.961520671844482 3.1395400168499066e-10 7.446359528984203e-09 2.036379953551659e-09 6.059519552792381e-10 1.263390014827337e-08 3.4976599394553887e-09 3.1394797872508207e-10 7.44636974303603e-09 2.0363901676034857e-09 -7.730909824371338 5.474879741668701 -0.4173140823841095 3.13956000086435e-10 7.446349314932377e-09 2.0363699615444375e-09 -2.9055399894714355 0.9651829600334167 -0.10290199518203735 3.139449811229156e-10 7.446359528984203e-09 2.036379953551659e-09 -10.27859878540039 0.73180091381073 -0.025912316516041756 3.1395400168499066e-10 7.446359528984203e-09 2.036379953551659e-09 -2.221669912338257 -0.733487069606781 0.208919957280159 -2.0321699480147914e-16 0.0 -3.8825099822884138e-19 -13.010099411010742 11.179302215576172 -1.2370895147323608 0.10434099286794662 29.89049530029297 2.463620185852051 -7.759879112243652 -18.184396743774414 -29.688997268676758 2.0321699480147914e-16 0.0 3.8825099822884138e-19 90.2531967163086 -49.57430648803711 78.95330047607422 9.820731163024902 83.97061157226562 -9.63538932800293 -0.2816939651966095 -5.303419589996338 -2.4070799350738525
6.33420998939839 47.72519891974998 49.28400023014364 -19.130098342895508 -30.17110252380371 15.77039909362793 12.802299499511719 7.633240222930908 5.2366790771484375 2.2256197929382324 -7.101449966430664 1.5987401008605957 0.04492440074682236 12.471400260925293 7.972189903259277 4.084299564361572 -21.23940086364746 16.452802658081055 -0.0 0.0 -0.0 -0.0 0.0 -0.0 -4.868639671105901e-13 -2.639839844116587e-13 -4.737540112813299e-13 106.49199676513672 45.750701904296875 -53.9176025390625 -26.984098434448242 -44.05811309814453 91.55949401855469 -4.575019359588623 -50.26510238647461 -9.733898162841797 3.5703497935912765e-09 -4.755370319742269e-09 1.1026999313656916e-09 6.105169703118918e-09 -7.837559934387173e-09 2.0468700068221324e-09 3.570359785598498e-09 -4.755359217512023e-09 1.10268993935847e-09 7.730909824371338 5.474879741668701 0.4173140823841095 3.5703497935912765e-09 -4.755370319742269e-09 1.1026999313656916e-09 2.9055399894714355 0.9651829600334167 0.10290199518203735 3.570359785598498e-09 -4.755359217512023e-09 1.1026999313656916e-09 10.27859878540039 0.73180091381073 0.025912316516041756 3.570339801584055e-09 -4.755359217512023e-09 1.1027100343952156e-09 2.221669912338257 -0.733487069606781 -0.208919957280159 -4.871129541395014e-13 -2.6398899884670646e-13 -4.740519500383289e-13 -45.44580078125 11.08539867401123 -38.134098052978516 12.797597885131836 -6.023980140686035 -23.164697647094727 2.5924999713897705 40.79030227661133 -6.965419292449951 1.0488400148389587e-09 2.470810045451799e-08 6.753309911289307e-09 2.0225798813555684e-09 4.1930899641329233e-08 1.1602999450133211e-08 1.0488400148389587e-09 2.470810045451799e-08 6.75332945121454e-09 -7.730909824371338 5.474879741668701 -0.4173140823841095 1.0488500068461803e-09 2.470810045451799e-08 6.7533201253411335e-09 -2.9055399894714355 0.9651829600334167 -0.10290199518203735 1.048830022831737e-09 2.470810045451799e-08 6.7533201253411335e-09 -10.27859878540039 0.73180091381073 -0.025912316516041756 1.0488500068461803e-09 2.470810045451799e-08 6.7533201253411335e-09 -2.221669912338257 -0.733487069606781 0.208919957280159 -2.0321699480147914e-16 0.0 -3.8825099822884138e-19 -12.960301399230957 11.245301246643066 -1.308019995689392 0.10593599081039429 29.781497955322266 2.46481990814209 -7.715770244598389 -18.176698684692383 -29.618101119995117 2.0321699480147914e-16 0.0 3.8825099822884138e-19 90.59069061279297 -49.539794921875 79.21189880371094 10.132098197937012 84.13330841064453 -9.941370010375977 -0.2962510287761688 -5.381820201873779 -2.4890799522399902
